<?xml version="1.0" ?><!DOCTYPE svg  PUBLIC '-//W3C//DTD SVG 1.1//EN'  'http://www.w3.org/Graphics/SVG/1.1/DTD/svg11.dtd'><svg height="8.26772in" style="shape-rendering:geometricPrecision; text-rendering:geometricPrecision; image-rendering:optimizeQuality; fill-rule:evenodd; clip-rule:evenodd" version="1.1" viewBox="0 0 826772 826772" width="8.26772in" xml:space="preserve" xmlns="http://www.w3.org/2000/svg" xmlns:xlink="http://www.w3.org/1999/xlink"><defs><style type="text/css">
   <![CDATA[
    .str0 {stroke:#FEFEFE;stroke-width:14999.6}
    .str1 {stroke:#2E373C;stroke-width:14999.6}
    .fil2 {fill:#FEFEFE}
    .fil1 {fill:#2E373C}
    .fil0 {fill:#DD4B39}
   ]]>
  </style></defs><g id="Layer_x0020_1"><polygon class="fil0" points="0,0 826772,0 826772,826772 0,826772 "/><g id="_1980305097904"><path class="fil1 str0" d="M640768 253534c-15700,14555 -180949,170266 -194140,178352 -24829,15220 -54060,11190 -76014,-7207 0,0 -184436,-170984 -184610,-171145l10605 -11439 92305 85572c882,818 79786,97823 124472,97823 44688,0 123591,-97005 124473,-97823l92304 -85572 10605 11439z"/><path class="fil1 str0" d="M214193 234754c19511,0 395753,-1639 409050,1083 25754,5272 41085,26278 42387,51967 627,12373 963,251828 -1084,261828 -5272,25754 -26277,41085 -51967,42387 -13990,709 -398551,1065 -409049,-1084 -25754,-5272 -41085,-26278 -42387,-51967 -628,-12373 -963,-251828 1083,-261827 5578,-27250 25964,-39744 51967,-42387zm0 15598c-18347,1863 -32759,10734 -36689,29936 -1489,7278 -1246,249140 -763,258680 917,18117 11781,32974 29936,36689 7985,1635 394810,1325 405902,763 18117,-917 32974,-11780 36690,-29935 1489,-7278 1246,-249141 762,-258681 -917,-18116 -11780,-32973 -29935,-36689 -9507,-1946 -391868,-763 -405903,-763z"/></g><g id="_1980305098288"><path class="fil1 str1" d="M640768 253534c-15700,14555 -180949,170266 -194140,178352 -24829,15220 -54060,11190 -76014,-7207 0,0 -184436,-170984 -184610,-171145l10605 -11439 92305 85572c882,818 79786,97823 124472,97823 44688,0 123591,-97005 124473,-97823l92304 -85572 10605 11439z"/><path class="fil1 str1" d="M214193 234754c19511,0 395753,-1639 409050,1083 25754,5272 41085,26278 42387,51967 627,12373 963,251828 -1084,261828 -5272,25754 -26277,41085 -51967,42387 -13990,709 -398551,1065 -409049,-1084 -25754,-5272 -41085,-26278 -42387,-51967 -628,-12373 -963,-251828 1083,-261827 5578,-27250 25964,-39744 51967,-42387zm0 15598c-18347,1863 -32759,10734 -36689,29936 -1489,7278 -1246,249140 -763,258680 917,18117 11781,32974 29936,36689 7985,1635 394810,1325 405902,763 18117,-917 32974,-11780 36690,-29935 1489,-7278 1246,-249141 762,-258681 -917,-18116 -11780,-32973 -29935,-36689 -9507,-1946 -391868,-763 -405903,-763z"/></g><g id="_1980305100240"><path class="fil2 str0" d="M628227 253534c-15700,14555 -180949,170266 -194140,178352 -24829,15220 -54060,11190 -76014,-7207 0,0 -184436,-170984 -184610,-171145l10605 -11439 92305 85572c882,818 79786,97823 124472,97823 44688,0 123591,-97005 124473,-97823l92304 -85572 10605 11439z"/><path class="fil2 str0" d="M201652 234754c19511,0 395753,-1639 409050,1083 25754,5272 41085,26278 42387,51967 627,12373 963,251828 -1084,261828 -5272,25754 -26277,41085 -51967,42387 -13990,709 -398551,1065 -409049,-1084 -25754,-5272 -41085,-26278 -42387,-51967 -628,-12373 -963,-251828 1083,-261827 5578,-27250 25964,-39744 51967,-42387zm0 15598c-18347,1863 -32759,10734 -36689,29936 -1489,7278 -1246,249140 -763,258680 917,18117 11781,32974 29936,36689 7985,1635 394810,1325 405902,763 18117,-917 32974,-11780 36690,-29935 1489,-7278 1246,-249141 763,-258681 -918,-18116 -11781,-32973 -29936,-36689 -9507,-1946 -391868,-763 -405903,-763z"/></g></g></svg>