<?xml version="1.0" ?><!DOCTYPE svg  PUBLIC '-//W3C//DTD SVG 1.1//EN'  'http://www.w3.org/Graphics/SVG/1.1/DTD/svg11.dtd'><svg height="8.26772in" style="shape-rendering:geometricPrecision; text-rendering:geometricPrecision; image-rendering:optimizeQuality; fill-rule:evenodd; clip-rule:evenodd" version="1.1" viewBox="0 0 826772 826772" width="8.26772in" xml:space="preserve" xmlns="http://www.w3.org/2000/svg" xmlns:xlink="http://www.w3.org/1999/xlink"><defs><style type="text/css">
   <![CDATA[
    .fil0 {fill:#DD4B39}
    .fil2 {fill:#FEFEFE;fill-rule:nonzero}
    .fil1 {fill:#2E373C;fill-rule:nonzero}
   ]]>
  </style></defs><g id="Layer_x0020_1"><polygon class="fil0" points="0,0 826772,0 826772,826772 0,826772 "/><g id="_2016287061072"><path class="fil1" d="M171578 555571c62687,54429 131357,105033 223715,105066 1796,0 3609,-33 5472,-67 58745,-1352 125208,-21197 176784,-53586l295 -199c6760,-4055 13517,-8637 19863,-13747 3991,-2934 6692,-7501 6692,-12264 -164,-8506 -7367,-14241 -15131,-14241 -2439,-33 -4961,543 -7335,1682 -2637,1054 -5374,2257 -7896,3346l-3791 1580 -4862 1963 0 34c-53060,21509 -108791,34136 -160350,35274 -1895,65 -3793,65 -5671,65 -81098,34 -147295,-37614 -214020,-74686 -2357,-1221 -4731,-1863 -7055,-1863 -3034,0 -6082,1121 -8340,3215 -2259,2093 -3577,5159 -3544,8275 0,4071 2158,7762 5174,10153z"/><path class="fil1" d="M660806 536433c-197,-5159 -1286,-9081 -3444,-12328l-198 -330 -265 -330c-2191,-2391 -4284,-3279 -6559,-4286 -6760,-2605 -16615,-3989 -28450,-4022 -8540,0 -17967,809 -27396,2868l-34 -610 -9494 3148 -164 99 -5375 1749 0 230c-6313,2605 -12033,5902 -17357,9724 -3313,2506 -6082,5770 -6246,10798 -67,2737 1318,5901 3642,7763 2292,1862 4961,2472 7303,2472 575,0 1088,-32 1582,-99l412 -32 380 -67c4631,-1005 11423,-1647 19351,-2769 6791,-741 14010,-1317 20241,-1317 4433,0 8407,296 11143,906 1384,297 2389,642 2967,940 198,64 347,131 412,198 131,377 280,1350 263,2736 99,5224 -2159,14951 -5175,24412 -2967,9493 -6593,19004 -8984,25317 -576,1451 -906,3066 -906,4797 -67,2538 973,5604 3180,7665 2128,2027 4897,2868 7238,2868l97 0c3513,-65 6480,-1451 9052,-3446 24146,-21740 32521,-56389 32868,-75888l-99 -3133 0 -33 15 0z"/><path class="fil1" d="M440110 303704c-14192,1072 -30576,2161 -46945,4319 -25104,3314 -50191,7665 -70928,17523 -40367,16367 -67663,51279 -67663,102592 0,64416 41470,97170 93872,97170 17457,0 31648,-2225 44719,-5440 20769,-6576 38176,-18560 58946,-40416 11983,16367 15263,24032 35998,41488 5440,2158 10912,2158 15263,-1055 13137,-10946 36034,-30593 48002,-41522 5504,-4351 4383,-10912 1087,-16335 -11967,-15298 -23983,-28400 -23983,-57907l0 -98241c0,-41488 3279,-79714 -27264,-108065 -25071,-22911 -64384,-31680 -94927,-31680l-13105 0c-55632,3247 -114576,27280 -127681,96081 -2191,8737 4385,11984 8754,13071l61069 7632c6579,-1089 9858,-6576 10913,-11984 5472,-24031 25103,-36048 46945,-38223l4385 0c13103,0 27262,5472 34895,16399 8719,13105 7665,30561 7665,45857l0 8736 -17 0zm-11999 129889l0 0c-7633,15231 -20738,25056 -34929,28403 -2193,0 -5440,1054 -8752,1054 -23985,0 -38176,-18577 -38176,-45841 0,-34977 20770,-51346 46945,-58976 14192,-3248 30544,-4386 46943,-4386l0 13105c-32,25153 1039,44802 -12031,66641z"/></g><g id="_2016287061872"><path class="fil2" d="M159695 555571c62687,54429 131357,105033 223715,105066 1796,0 3609,-33 5472,-67 58746,-1352 125208,-21197 176785,-53586l295 -199c6759,-4055 13516,-8637 19862,-13747 3991,-2934 6693,-7501 6693,-12264 -164,-8506 -7368,-14241 -15132,-14241 -2439,-33 -4961,543 -7335,1682 -2637,1054 -5373,2257 -7896,3346l-3790 1580 -4862 1963 0 34c-53060,21509 -108792,34136 -160351,35274 -1895,65 -3792,65 -5670,65 -81098,34 -147296,-37614 -214021,-74686 -2356,-1221 -4730,-1863 -7055,-1863 -3033,0 -6082,1121 -8340,3215 -2259,2093 -3577,5159 -3545,8275 0,4071 2159,7762 5175,10153z"/><path class="fil2" d="M648923 536433c-197,-5159 -1285,-9081 -3443,-12328l-199 -330 -265 -330c-2191,-2391 -4285,-3279 -6559,-4286 -6759,-2605 -16615,-3989 -28450,-4022 -8540,0 -17967,809 -27396,2868l-34 -610 -9494 3148 -163 99 -5376 1749 0 230c-6313,2605 -12033,5902 -17356,9724 -3314,2506 -6083,5770 -6247,10798 -67,2737 1318,5901 3642,7763 2292,1862 4961,2472 7303,2472 575,0 1089,-32 1583,-99l411 -32 380 -67c4631,-1005 11423,-1647 19351,-2769 6792,-741 14010,-1317 20241,-1317 4433,0 8407,296 11143,906 1385,297 2389,642 2967,940 199,64 347,131 412,198 132,377 280,1350 263,2736 99,5224 -2158,14951 -5175,24412 -2966,9493 -6593,19004 -8984,25317 -576,1451 -906,3066 -906,4797 -66,2538 972,5604 3180,7665 2129,2027 4897,2868 7239,2868l96 0c3513,-65 6480,-1451 9052,-3446 24146,-21740 32521,-56389 32868,-75888l-100 -3133 0 -33 16 0z"/><path class="fil2" d="M428227 303704c-14192,1072 -30576,2161 -46945,4319 -25104,3314 -50190,7665 -70928,17523 -40367,16367 -67663,51279 -67663,102592 0,64416 41470,97170 93873,97170 17456,0 31647,-2225 44718,-5440 20770,-6576 38176,-18560 58946,-40416 11983,16367 15263,24032 35998,41488 5440,2158 10913,2158 15263,-1055 13138,-10946 36033,-30593 48002,-41522 5505,-4351 4383,-10912 1087,-16335 -11967,-15298 -23983,-28400 -23983,-57907l0 -98241c0,-41488 3280,-79714 -27264,-108065 -25071,-22911 -64384,-31680 -94927,-31680l-13105 0c-55632,3247 -114576,27280 -127681,96081 -2191,8737 4386,11984 8754,13071l61070 7632c6578,-1089 9858,-6576 10912,-11984 5472,-24031 25103,-36048 46945,-38223l4386 0c13102,0 27261,5472 34894,16399 8719,13105 7665,30561 7665,45857l0 8736 -17 0zm-11999 129889l0 0c-7633,15231 -20737,25056 -34929,28403 -2193,0 -5440,1054 -8752,1054 -23984,0 -38176,-18577 -38176,-45841 0,-34977 20770,-51346 46945,-58976 14192,-3248 30544,-4386 46943,-4386l0 13105c-32,25153 1039,44802 -12031,66641z"/></g></g></svg>